<svg width="20" height="15" viewBox="0 0 20 15" fill="none" xmlns="http://www.w3.org/2000/svg">
<path d="M17.4667 3.72808C17.4667 3.86142 17.4667 4.06142 17.4667 4.19475C17.4667 9.19475 13.6667 14.9281 6.73334 14.9281C4.6 14.9281 2.6 14.3281 0.933334 13.2614C1.2 13.2614 1.53333 13.3281 1.86667 13.3281C3.66667 13.3281 5.26667 12.7281 6.53333 11.7281C4.86667 11.7281 3.46667 10.5948 3 9.12809C3.2 9.19475 3.46667 9.19475 3.73333 9.19475C4.06667 9.19475 4.4 9.12809 4.73333 9.06142C3 8.66142 1.66667 7.12808 1.66667 5.32808C1.66667 5.32808 1.66667 5.32808 1.66667 5.26142C2.2 5.52808 2.73333 5.72808 3.4 5.72808C2.4 5.06142 1.73333 3.92808 1.73333 2.59475C1.73333 1.92808 1.93333 1.26142 2.26667 0.728084C4.13333 2.99475 6.93334 4.52808 10.0667 4.66142C10 4.39475 10 4.12808 10 3.79475C10 1.72808 11.6667 -0.00524902 13.8 -0.00524902C14.8667 -0.00524902 15.8667 0.461418 16.5333 1.19475C17.4 0.994751 18.2 0.728084 18.9333 0.261418C18.6667 1.12808 18.0667 1.86142 17.2667 2.32808C17.9333 2.26142 18.6667 2.06142 19.3333 1.79475C18.8 2.52808 18.2 3.19475 17.4667 3.72808Z" fill="black"/>
</svg>
