<svg width="19" height="13" viewBox="0 0 19 13" fill="none" xmlns="http://www.w3.org/2000/svg">
<path d="M13.6 3.92816C13.6 3.92816 12.1333 8.59482 12 8.92816C11.9333 8.52816 10.8667 0.194824 10.8667 0.194824C8.33333 0.194824 7 1.99482 6.26666 3.86149C6.26666 3.86149 4.46667 8.52816 4.33333 8.92816C4.33333 8.59482 4.06667 3.92816 4.06667 3.92816C3.93333 1.59482 1.8 0.194824 0.0666656 0.194824L2.13333 12.7948C4.8 12.7948 6.2 10.9948 6.93333 9.12816C6.93333 9.12816 8.53333 4.99482 8.6 4.86149C8.6 5.06149 9.73333 12.8615 9.73333 12.8615C12.4 12.8615 13.8 11.1948 14.6 9.32816L18.3333 0.194824C15.7333 0.194824 14.3333 1.99482 13.6 3.92816Z" fill="black"/>
</svg>
