<svg width="19" height="19" viewBox="0 0 19 19" fill="none" xmlns="http://www.w3.org/2000/svg">
<path d="M1.26666 5.0615C1.26666 6.52817 1.73333 7.6615 2.73333 8.2615C3.53333 8.79483 4.46666 8.8615 4.93333 8.8615C5.06666 8.8615 5.13333 8.8615 5.2 8.8615C5.2 8.8615 5.06666 9.8615 5.8 10.8615H5.73333C4.46666 10.8615 0.266663 11.1282 0.266663 14.5948C0.266663 18.1282 4.13333 18.2615 4.93333 18.2615C5 18.2615 5 18.2615 5 18.2615C5 18.2615 5.06666 18.2615 5.13333 18.2615C5.6 18.2615 6.93333 18.1948 8.13333 17.5948C9.66666 16.8615 10.4667 15.5282 10.4667 13.7282C10.4667 11.9948 9.26666 10.9282 8.4 10.1282C7.86666 9.6615 7.4 9.2615 7.4 8.8615C7.4 8.4615 7.73333 8.12817 8.13333 7.79483C8.8 7.19483 9.46666 6.32817 9.46666 4.6615C9.46666 3.19483 9.26666 2.19483 8.13333 1.59483C8.33333 1.52817 8.8 1.4615 9 1.4615C9.6 1.39483 10.5333 1.2615 10.5333 0.794832V0.661499H5.93333C5.86666 0.661499 1.26666 0.861499 1.26666 5.0615ZM8.73333 14.0615C8.8 15.4615 7.6 16.5282 5.8 16.6615C3.93333 16.7948 2.46666 15.9948 2.4 14.5948C2.33333 13.9282 2.66666 13.2615 3.26666 12.7282C3.86666 12.1948 4.66666 11.8615 5.53333 11.7948C5.66666 11.7948 5.73333 11.7948 5.86666 11.7948C7.46666 11.7282 8.6 12.7282 8.73333 14.0615ZM7.53333 4.0615C8 5.6615 7.33333 7.32817 6.2 7.59483C6.06666 7.6615 5.93333 7.6615 5.8 7.6615C4.8 7.6615 3.8 6.6615 3.46666 5.2615C3.26666 4.52817 3.26666 3.8615 3.53333 3.19483C3.73333 2.52817 4.2 2.12817 4.66666 1.99483C4.8 1.92817 4.93333 1.92817 5.06666 1.92817C6.26666 1.92817 7 2.39483 7.53333 4.0615ZM15.2667 7.4615V4.4615H13.2667V7.4615H10.2667V9.4615H13.2667V12.4615H15.2667V9.4615H18.2667V7.4615H15.2667Z" fill="black"/>
</svg>
