<svg width="16" height="20" viewBox="0 0 16 20" fill="none" xmlns="http://www.w3.org/2000/svg">
<path d="M15.2667 6.12812C14.7333 2.39479 11 0.528124 7.06667 0.99479C3.93334 1.32812 0.800004 3.86146 0.66667 7.46146C0.600004 9.66146 1.2 11.3281 3.33334 11.7948C4.26667 10.1948 3.06667 9.86146 2.86667 8.66146C2.06667 3.86146 8.4 0.661457 11.6667 3.99479C13.9333 6.32812 12.4667 13.3948 8.8 12.6615C5.26667 11.9281 10.5333 6.32812 7.73334 5.19479C5.46667 4.26146 4.26667 7.92812 5.33334 9.79479C4.66667 12.9281 3.33334 15.8615 3.86667 19.7948C5.66667 18.4615 6.26667 15.9948 6.73334 13.3948C7.6 13.9281 8.13334 14.5281 9.26667 14.5948C13.4667 14.9281 15.8 10.3281 15.2667 6.12812Z" fill="black"/>
</svg>
